<svg xmlns="http://www.w3.org/2000/svg" xmlns:xlink="http://www.w3.org/1999/xlink" xmlns:lucid="lucid" width="240" height="240"><g transform="translate(-40 -20)" lucid:page-tab-id="0_0"><path d="M260 140c0 55.23-44.77 100-100 100S60 195.23 60 140 104.77 40 160 40s100 44.77 100 100z" stroke="#5e5e5e" stroke-width="3" fill="#999"/><use xlink:href="#a" transform="matrix(1,0,0,1,65,45) translate(58.356236979166745 136.02692708333302)"/><defs><path fill="#fff" d="M664-596c-55-66-187-55-309-55v547c0 8 13 17 39 27s71 21 136 34V0H50v-43c45-9 80-20 106-31s39-21 39-30v-1051c0-8-13-18-37-30s-60-23-108-32v-43h816l31 25c-5 79-20 160-39 225h-47c-6-79-6-160-82-160H355v435h374l29 28c-26 39-59 81-94 111" id="b"/><use transform="matrix(0.07486979166666649,0,0,0.07486979166666649,0,0)" xlink:href="#b" id="a"/></defs></g></svg>