<svg xmlns="http://www.w3.org/2000/svg" xmlns:lucid="lucid" width="240" height="240"><g lucid:page-tab-id="0_0"><path d="M220 120c0 55.23-44.77 100-100 100S20 175.23 20 120 64.77 20 120 20s100 44.77 100 100z" stroke="#5e5e5e" stroke-width="3" fill="#999"/><path d="M200 120c0 44.18-35.82 80-80 80s-80-35.82-80-80 35.82-80 80-80 80 35.82 80 80z" stroke="#fff" stroke-width="6" fill="#999"/><path d="M150 120c0 16.57-13.43 30-30 30s-30-13.43-30-30 13.43-30 30-30 30 13.43 30 30z" stroke="#fff" stroke-width="8" fill="#999"/><path d="M120 118c-1.1 0-2-.9-2-2V74c0-1.1.9-2 2-2s2 .9 2 2v42c0 1.1-.9 2-2 2z" stroke="#fff" stroke-width="4" fill="none"/></g></svg>