<svg xmlns="http://www.w3.org/2000/svg" xmlns:xlink="http://www.w3.org/1999/xlink" xmlns:lucid="lucid" width="240" height="240"><g transform="translate(-60 -20)" lucid:page-tab-id="0_0"><path d="M280 140c0 55.23-44.77 100-100 100S80 195.23 80 140 124.77 40 180 40s100 44.77 100 100z" stroke="#5e5e5e" stroke-width="3" fill="#999"/><use xlink:href="#a" transform="matrix(1,0,0,1,85,45) translate(51.9923046875 138.02692708333333)"/><defs><path fill="#fff" d="M514-602c-55 5-111 1-159-9v507c0 8 12 18 36 30s60 22 109 31V0H50v-43c45-9 80-20 106-31s39-21 39-30v-1085c-47 7-97 15-145 21l-9-62c217-63 597-103 773 27 65 48 113 115 113 216 0 208-122 309-282 362l303 486c31 53 95 70 180 59l11 43c-69 22-148 49-224 51-41 1-82-28-98-55zm258-354c-4-212-191-262-417-247v512c228 33 422-47 417-265" id="b"/><use transform="matrix(0.07486979166666667,0,0,0.07486979166666667,0,0)" xlink:href="#b" id="a"/></defs></g></svg>