<svg xmlns="http://www.w3.org/2000/svg" xmlns:lucid="lucid" width="240" height="240"><g lucid:page-tab-id="0_0"><path d="M220 120c0 55.23-44.77 100-100 100S20 175.23 20 120 64.77 20 120 20s100 44.77 100 100z" stroke="#5e5e5e" stroke-width="3" fill="#999"/><path d="M200 120c0 44.18-35.82 80-80 80s-80-35.82-80-80 35.82-80 80-80 80 35.82 80 80z" stroke="#fff" stroke-width="6" fill="#999"/><path d="M120 130c-.83 0-1.5-.67-1.5-1.5v-64c0-.83.67-1.5 1.5-1.5s1.5.67 1.5 1.5v64c0 .83-.67 1.5-1.5 1.5z" stroke="#fff" stroke-width="3" fill="none"/><path d="M119 129c0-.83.67-1.5 1.5-1.5H148c.83 0 1.5.67 1.5 1.5s-.67 1.5-1.5 1.5h-27.5c-.83 0-1.5-.67-1.5-1.5z" stroke="#fff" stroke-width="3" fill="none"/></g></svg>