<svg xmlns="http://www.w3.org/2000/svg" xmlns:xlink="http://www.w3.org/1999/xlink" xmlns:lucid="lucid" width="240" height="240"><g transform="translate(-40 -20)" lucid:page-tab-id="0_0"><path d="M260 140c0 55.23-44.77 100-100 100S60 195.23 60 140 104.77 40 160 40s100 44.77 100 100z" stroke="#5e5e5e" stroke-width="3" fill="#999"/><use xlink:href="#a" transform="matrix(1,0,0,1,65,45) translate(29.825846354166814 140.29622395833323)"/><defs><path fill="#fff" d="M1702-1217c-58 13-106 21-144 47-5 5-7 10-8 15L1321-59c-17 56-81 75-139 89L856-944 569-59c-22 56-87 75-151 89L158-1147c-20-50-66-54-138-70v-43h429v43c-52 5-88 12-119 29-15 10-22 20-17 41l199 897 324-1010h55l354 1010 187-905c-5-38-54-40-91-50-19-5-40-8-63-12v-43h424v43" id="b"/><use transform="matrix(0.07486979166666649,0,0,0.07486979166666649,0,0)" xlink:href="#b" id="a"/></defs></g></svg>